<svg width="207" height="49" fill="none" xmlns="http://www.w3.org/2000/svg"><path d="M71.568 35V14.868h16.8c.933 0 1.727.336 2.38 1.008.653.653.98 1.437.98 2.352v5.908c0 .915-.327 1.708-.98 2.38-.653.653-1.447.98-2.38.98H73.836V35h-2.268zm3.36-9.8h13.44c.299 0 .55-.103.756-.308a.986.986 0 0 0 .336-.756v-5.908a.986.986 0 0 0-.336-.756.986.986 0 0 0-.756-.336h-13.44c-.299 0-.56.112-.784.336a1.028 1.028 0 0 0-.308.756v5.908c0 .299.103.55.308.756.224.205.485.308.784.308zM93.604 35V18.76H95.9V35h-2.296zm0-19.264V13.44H95.9v2.296h-2.296zM98.112 35v-.028l6.776-8.232-6.776-7.952v-.028h3.024l5.264 6.16 5.292-6.16h2.996v.028l-6.776 7.952 6.804 8.232V35h-3.024l-5.292-6.496L101.136 35h-3.024zm21.548 0a3.333 3.333 0 0 1-2.408-.98 3.331 3.331 0 0 1-.98-2.408v-9.464c0-.933.326-1.727.98-2.38.672-.672 1.474-1.008 2.408-1.008h9.744c.952 0 1.754.336 2.408 1.008a3.195 3.195 0 0 1 1.008 2.38v5.88h-14.252v3.584c0 .299.102.56.308.784.224.205.485.308.784.308h13.16V35h-13.16zm-1.092-9.268h11.928v-3.584a.986.986 0 0 0-.336-.756.988.988 0 0 0-.756-.336h-9.744c-.299 0-.56.112-.784.336a1.025 1.025 0 0 0-.308.756v3.584zM138.528 35a3.333 3.333 0 0 1-2.408-.98 3.331 3.331 0 0 1-.98-2.408V13.44h2.296v18.172c0 .299.102.56.308.784.224.205.485.308.784.308h2.744V35h-2.744z" fill="#039BE5"/><path d="M147.845 35c-1.139 0-2.119-.401-2.94-1.204-.803-.821-1.204-1.801-1.204-2.94V18.984c0-1.139.401-2.11 1.204-2.912.821-.821 1.801-1.232 2.94-1.232h11.844c1.138 0 2.118.41 2.94 1.232.821.803 1.232 1.773 1.232 2.912v1.904h-4.396v-.756-.924h-11.424v11.424h11.424v-3.024h-4.368V23.24h8.764v7.616c0 1.139-.411 2.119-1.232 2.94-.822.803-1.802 1.204-2.94 1.204h-11.844zm18.986 0V22.82c0-1.101.401-2.053 1.204-2.856.803-.803 1.764-1.204 2.884-1.204h8.96v4.284h-8.764V35h-4.284zm15.285 0V18.76h4.284V35h-4.284zm0-17.248V13.44h4.284v4.312h-4.284zM192.309 35c-1.12 0-2.081-.401-2.884-1.204-.784-.803-1.176-1.755-1.176-2.856v-8.12c0-1.101.392-2.053 1.176-2.856.803-.803 1.764-1.204 2.884-1.204h8.148v-5.32h4.284V35h-12.432zm1.176-4.284h6.972v-6.748-.924H192.561V30.716h.924z" fill="#D32F2F"/><circle cx="24" cy="24" r="19.125" fill="url(#paint0_linear)" stroke="#1B5E20" stroke-width="3"/><g filter="url(#filter0_d)"><path fill="#D32F2F" d="M7.125 4.5H21.75v38.25H7.125z"/><path stroke="#fff" stroke-width="3" d="M8.625 6H20.25v35.25H8.625z"/></g><g filter="url(#filter1_d)"><path fill="#F9A825" d="M26.25 4.5h13.5v14.625h-13.5z"/><path stroke="#fff" stroke-width="3" d="M27.75 6h10.5v11.625h-10.5z"/></g><g filter="url(#filter2_d)"><path fill="#039BE5" d="M26.25 23.625h13.5V42.75h-13.5z"/><path stroke="#fff" stroke-width="3" d="M27.75 25.125h10.5V41.25h-10.5z"/></g><defs><filter id="filter0_d" x="3.125" y="2.5" width="22.625" height="46.25" filterUnits="userSpaceOnUse" color-interpolation-filters="sRGB"><feFlood flood-opacity="0" result="BackgroundImageFix"/><feColorMatrix in="SourceAlpha" values="0 0 0 0 0 0 0 0 0 0 0 0 0 0 0 0 0 0 127 0"/><feOffset dy="2"/><feGaussianBlur stdDeviation="2"/><feColorMatrix values="0 0 0 0 0 0 0 0 0 0 0 0 0 0 0 0 0 0 0.25 0"/><feBlend in2="BackgroundImageFix" result="effect1_dropShadow"/><feBlend in="SourceGraphic" in2="effect1_dropShadow" result="shape"/></filter><filter id="filter1_d" x="22.25" y="2.5" width="21.5" height="22.625" filterUnits="userSpaceOnUse" color-interpolation-filters="sRGB"><feFlood flood-opacity="0" result="BackgroundImageFix"/><feColorMatrix in="SourceAlpha" values="0 0 0 0 0 0 0 0 0 0 0 0 0 0 0 0 0 0 127 0"/><feOffset dy="2"/><feGaussianBlur stdDeviation="2"/><feColorMatrix values="0 0 0 0 0 0 0 0 0 0 0 0 0 0 0 0 0 0 0.25 0"/><feBlend in2="BackgroundImageFix" result="effect1_dropShadow"/><feBlend in="SourceGraphic" in2="effect1_dropShadow" result="shape"/></filter><filter id="filter2_d" x="22.25" y="21.625" width="21.5" height="27.125" filterUnits="userSpaceOnUse" color-interpolation-filters="sRGB"><feFlood flood-opacity="0" result="BackgroundImageFix"/><feColorMatrix in="SourceAlpha" values="0 0 0 0 0 0 0 0 0 0 0 0 0 0 0 0 0 0 127 0"/><feOffset dy="2"/><feGaussianBlur stdDeviation="2"/><feColorMatrix values="0 0 0 0 0 0 0 0 0 0 0 0 0 0 0 0 0 0 0.25 0"/><feBlend in2="BackgroundImageFix" result="effect1_dropShadow"/><feBlend in="SourceGraphic" in2="effect1_dropShadow" result="shape"/></filter><linearGradient id="paint0_linear" x1="34.674" y1="25.085" x2="41.188" y2="13.688" gradientUnits="userSpaceOnUse"><stop stop-color="#2E7D32"/><stop offset="1" stop-color="#4CAF50"/></linearGradient></defs></svg>